<?xml version="1.0" encoding="utf-8"?>
<svg version="1.1" xmlns:xlink="http://www.w3.org/1999/xlink" width="140px" height="29px" xmlns="http://www.w3.org/2000/svg">
  <defs>
    <mask fill="white" id="clip2">
      <path d="M 0 24  L 0 5  C 0 2.1999999999999886  4.88888888888899 0  11.11111111111101 0  L 83.56589147286832 0  L 90.18087855297168 0  L 128.888888888889 0  C 135.111111111111 0  140 2.1999999999999886  140 5  L 140 24  C 140 26.80000000000001  135.111111111111 29  128.888888888889 29  L 11.11111111111101 29  C 4.88888888888899 29  0 26.80000000000001  0 24  Z " fill-rule="evenodd" />
    </mask>
  </defs>
  <g transform="matrix(1 0 0 1 -1460 -220 )">
    <path d="M 0 24  L 0 5  C 0 2.1999999999999886  4.88888888888899 0  11.11111111111101 0  L 83.56589147286832 0  L 90.18087855297168 0  L 128.888888888889 0  C 135.111111111111 0  140 2.1999999999999886  140 5  L 140 24  C 140 26.80000000000001  135.111111111111 29  128.888888888889 29  L 11.11111111111101 29  C 4.88888888888899 29  0 26.80000000000001  0 24  Z " fill-rule="nonzero" fill="#ffffff" stroke="none" transform="matrix(1 0 0 1 1460 220 )" />
    <path d="M 0 24  L 0 5  C 0 2.1999999999999886  4.88888888888899 0  11.11111111111101 0  L 83.56589147286832 0  L 90.18087855297168 0  L 128.888888888889 0  C 135.111111111111 0  140 2.1999999999999886  140 5  L 140 24  C 140 26.80000000000001  135.111111111111 29  128.888888888889 29  L 11.11111111111101 29  C 4.88888888888899 29  0 26.80000000000001  0 24  Z " stroke-width="2" stroke="#797979" fill="none" transform="matrix(1 0 0 1 1460 220 )" mask="url(#clip2)" />
  </g>
</svg>