<?xml version="1.0" encoding="utf-8"?>
<svg version="1.1" xmlns:xlink="http://www.w3.org/1999/xlink" width="28px" height="24px" xmlns="http://www.w3.org/2000/svg">
  <g transform="matrix(1 0 0 1 -1489 -35 )">
    <path d="M 1.75 10.285714285714286  L 26.25 10.285714285714286  C 26.733072916666668 10.285714285714286  27.1455078125 10.453125  27.4873046875 10.78794642857143  C 27.8291015625 11.122767857142858  28 11.526785714285712  28 12  C 28 12.473214285714285  27.8291015625 12.877232142857142  27.4873046875 13.212053571428573  C 27.1455078125 13.546875  26.733072916666668 13.714285714285714  26.25 13.714285714285714  L 26.044921875 13.714285714285714  L 24.47265625 22.580357142857142  C 24.399739583333336 22.99107142857143  24.199218750000004 23.330357142857142  23.87109375 23.598214285714285  C 23.542968750000004 23.86607142857143  23.169270833333336 24  22.75 24  L 5.25 24  C 4.830729166666667 24  4.45703125 23.86607142857143  4.12890625 23.598214285714285  C 3.80078125 23.330357142857142  3.600260416666667 22.99107142857143  3.52734375 22.580357142857142  L 1.955078125 13.714285714285714  L 1.75 13.714285714285714  C 1.2669270833333335 13.714285714285714  0.8544921875000001 13.546875  0.5126953125 13.212053571428573  C 0.1708984375 12.877232142857142  0 12.473214285714285  0 12  C 0 11.526785714285712  0.1708984375 11.122767857142858  0.5126953125 10.78794642857143  C 0.8544921875000001 10.453125  1.2669270833333335 10.285714285714286  1.75 10.285714285714286  Z M 6.5625 21  L 6.630859375 21  C 6.867838541666667 20.982142857142858  7.066080729166667 20.88169642857143  7.2255859375 20.698660714285715  C 7.385091145833334 20.515625  7.455729166666667 20.30803571428571  7.4375 20.075892857142858  L 7 14.504464285714286  C 6.981770833333334 14.272321428571427  6.879231770833334 14.078125  6.6923828125 13.921875  C 6.505533854166667 13.765624999999998  6.293619791666667 13.69642857142857  6.056640625 13.714285714285714  C 5.819661458333334 13.732142857142858  5.621419270833334 13.832589285714285  5.4619140625 14.015625  C 5.302408854166667 14.198660714285712  5.231770833333334 14.406249999999996  5.25 14.638392857142858  L 5.6875 20.209821428571427  C 5.705729166666667 20.433035714285715  5.799153645833334 20.620535714285715  5.9677734375 20.772321428571427  C 6.136393229166667 20.924107142857142  6.334635416666667 21  6.5625 21  Z M 11.990234375 20.745535714285715  C 12.163411458333334 20.575892857142858  12.25 20.375  12.25 20.142857142857142  L 12.25 14.571428571428573  C 12.25 14.339285714285712  12.163411458333334 14.138392857142856  11.990234375 13.96875  C 11.817057291666668 13.799107142857142  11.611979166666668 13.714285714285714  11.375 13.714285714285714  C 11.138020833333334 13.714285714285714  10.932942708333334 13.799107142857142  10.759765625 13.96875  C 10.586588541666666 14.138392857142856  10.5 14.339285714285712  10.5 14.571428571428573  L 10.5 20.142857142857142  C 10.5 20.375  10.586588541666666 20.575892857142858  10.759765625 20.745535714285715  C 10.932942708333334 20.915178571428573  11.138020833333334 21  11.375 21  C 11.611979166666668 21  11.817057291666668 20.915178571428573  11.990234375 20.745535714285715  Z M 17.240234375 20.745535714285715  C 17.413411458333336 20.575892857142858  17.5 20.375  17.5 20.142857142857142  L 17.5 14.571428571428573  C 17.5 14.339285714285712  17.413411458333336 14.138392857142856  17.240234375 13.96875  C 17.067057291666668 13.799107142857142  16.861979166666668 13.714285714285714  16.625 13.714285714285714  C 16.388020833333336 13.714285714285714  16.182942708333336 13.799107142857142  16.009765625 13.96875  C 15.836588541666668 14.138392857142856  15.75 14.339285714285712  15.75 14.571428571428573  L 15.75 20.142857142857142  C 15.75 20.375  15.836588541666668 20.575892857142858  16.009765625 20.745535714285715  C 16.182942708333336 20.915178571428573  16.388020833333336 21  16.625 21  C 16.861979166666668 21  17.067057291666668 20.915178571428573  17.240234375 20.745535714285715  Z M 22.0322265625 20.772321428571427  C 22.200846354166668 20.620535714285715  22.294270833333336 20.433035714285715  22.3125 20.209821428571427  L 22.75 14.638392857142858  C 22.768229166666668 14.406249999999996  22.697591145833336 14.198660714285712  22.5380859375 14.015625  C 22.378580729166668 13.832589285714285  22.180338541666668 13.732142857142858  21.943359375 13.714285714285714  C 21.706380208333336 13.69642857142857  21.494466145833336 13.765624999999998  21.3076171875 13.921875  C 21.120768229166668 14.078125  21.018229166666668 14.272321428571427  21 14.504464285714286  L 20.5625 20.075892857142858  C 20.544270833333336 20.30803571428571  20.614908854166668 20.515625  20.7744140625 20.698660714285715  C 20.933919270833336 20.88169642857143  21.132161458333336 20.982142857142858  21.369140625 21  L 21.4375 21  C 21.665364583333336 21  21.863606770833336 20.924107142857142  22.0322265625 20.772321428571427  Z M 7.1298828125 2.9464285714285703  C 6.8154296875 3.1964285714285694  6.608072916666667 3.5178571428571397  6.5078125 3.9107142857142865  L 5.236328125 9.42857142857143  L 3.431640625 9.42857142857143  L 4.8125 3.5223214285714297  C 4.985677083333334 2.7366071428571415  5.391276041666667 2.0959821428571432  6.029296875 1.6004464285714297  C 6.667317708333334 1.1049107142857135  7.396484375 0.8571428571428568  8.216796875 0.8571428571428568  L 10.5 0.8571428571428568  C 10.5 0.6249999999999991  10.586588541666666 0.4241071428571397  10.759765625 0.2544642857142865  C 10.932942708333334 0.0848214285714306  11.138020833333334 0  11.375 0  L 16.625 0  C 16.861979166666668 0  17.067057291666668 0.0848214285714306  17.240234375 0.2544642857142865  C 17.413411458333336 0.4241071428571397  17.5 0.6249999999999991  17.5 0.8571428571428568  L 19.783203125 0.8571428571428568  C 20.603515625 0.8571428571428568  21.332682291666668 1.1049107142857135  21.970703125 1.6004464285714297  C 22.608723958333336 2.0959821428571432  23.014322916666668 2.7366071428571415  23.1875 3.5223214285714297  L 24.568359375 9.42857142857143  L 22.763671875 9.42857142857143  L 21.4921875 3.9107142857142865  C 21.391927083333336 3.5178571428571397  21.1845703125 3.1964285714285694  20.8701171875 2.9464285714285703  C 20.5556640625 2.696428571428571  20.193359375 2.5714285714285703  19.783203125 2.5714285714285703  L 17.5 2.5714285714285703  C 17.5 2.803571428571428  17.413411458333336 3.0044642857142847  17.240234375 3.1741071428571432  C 17.067057291666668 3.343749999999999  16.861979166666668 3.4285714285714297  16.625 3.4285714285714297  L 11.375 3.4285714285714297  C 11.138020833333334 3.4285714285714297  10.932942708333334 3.343749999999999  10.759765625 3.1741071428571432  C 10.586588541666666 3.0044642857142847  10.5 2.803571428571428  10.5 2.5714285714285703  L 8.216796875 2.5714285714285703  C 7.806640625 2.5714285714285703  7.4443359375 2.696428571428571  7.1298828125 2.9464285714285703  Z " fill-rule="nonzero" fill="#000000" stroke="none" transform="matrix(1 0 0 1 1489 35 )" />
  </g>
</svg>