<?xml version="1.0" encoding="utf-8"?>
<svg version="1.1" xmlns:xlink="http://www.w3.org/1999/xlink" width="31px" height="24px" xmlns="http://www.w3.org/2000/svg">
  <g transform="matrix(1 0 0 1 -1400 -35 )">
    <path d="M 13.085693359375 18.3984375  C 13.403564453125 17.997395833333336  13.5625 17.510416666666664  13.5625 16.9375  C 13.5625 16.375  13.524658203125 15.851562499999998  13.448974609375 15.367187500000002  C 13.373291015625 14.8828125  13.249674479166668 14.4140625  13.078125 13.960937500000002  C 12.906575520833334 13.507812499999998  12.649251302083334 13.151041666666666  12.30615234375 12.890625  C 11.963053385416668 12.630208333333334  11.554361979166668 12.499999999999998  11.080078125 12.499999999999998  C 10.434244791666668 13.166666666666668  9.647135416666668 13.5  8.71875 13.5  C 7.790364583333335 13.5  7.003255208333334 13.166666666666668  6.357421875 12.499999999999998  C 5.883138020833334 12.499999999999998  5.474446614583334 12.630208333333334  5.13134765625 12.890625  C 4.788248697916667 13.151041666666666  4.530924479166667 13.507812499999998  4.359375 13.960937500000002  C 4.187825520833334 14.4140625  4.064208984375 14.8828125  3.988525390625 15.367187500000002  C 3.912841796875 15.851562499999998  3.875 16.375  3.875 16.9375  C 3.875 17.510416666666664  4.033935546875 17.997395833333336  4.351806640625 18.3984375  C 4.669677734375 18.799479166666668  5.050618489583334 19  5.49462890625 19  L 11.94287109375 19  C 12.386881510416668 19  12.767822265625 18.799479166666668  13.085693359375 18.3984375  Z M 10.77734375 12.124999999999998  C 11.342447916666666 11.541666666666668  11.625 10.833333333333332  11.625 10  C 11.625 9.166666666666666  11.342447916666666 8.458333333333332  10.77734375 7.875  C 10.212239583333334 7.291666666666663  9.526041666666668 6.999999999999999  8.71875 6.999999999999999  C 7.911458333333335 6.999999999999999  7.225260416666667 7.291666666666663  6.66015625 7.875  C 6.095052083333333 8.458333333333332  5.8125 9.166666666666666  5.8125 10  C 5.8125 10.833333333333332  6.095052083333333 11.541666666666668  6.66015625 12.124999999999998  C 7.225260416666667 12.708333333333332  7.911458333333335 13.000000000000002  8.71875 13.000000000000002  C 9.526041666666668 13.000000000000002  10.212239583333334 12.708333333333332  10.77734375 12.124999999999998  Z M 26.98876953125 17.859375  C 27.07958984375 17.765625  27.125 17.645833333333336  27.125 17.5  L 27.125 16.5  C 27.125 16.354166666666664  27.07958984375 16.234375  26.98876953125 16.140625  C 26.89794921875 16.046875  26.781901041666668 16  26.640625 16  L 15.984375 16  C 15.843098958333334 16  15.72705078125 16.046875  15.63623046875 16.140625  C 15.54541015625 16.234375  15.5 16.354166666666664  15.5 16.5  L 15.5 17.5  C 15.5 17.645833333333336  15.54541015625 17.765625  15.63623046875 17.859375  C 15.72705078125 17.953125  15.843098958333334 18  15.984375 18  L 26.640625 18  C 26.781901041666668 18  26.89794921875 17.953125  26.98876953125 17.859375  Z M 21.17626953125 13.859374999999998  C 21.26708984375 13.765624999999998  21.3125 13.645833333333332  21.3125 13.5  L 21.3125 12.499999999999998  C 21.3125 12.354166666666666  21.26708984375 12.234375  21.17626953125 12.140625  C 21.08544921875 12.046875  20.969401041666668 12  20.828125 12  L 15.984375 12  C 15.843098958333334 12  15.72705078125 12.046875  15.63623046875 12.140625  C 15.54541015625 12.234375  15.5 12.354166666666666  15.5 12.499999999999998  L 15.5 13.5  C 15.5 13.645833333333332  15.54541015625 13.765624999999998  15.63623046875 13.859374999999998  C 15.72705078125 13.953124999999998  15.843098958333334 13.999999999999998  15.984375 13.999999999999998  L 20.828125 13.999999999999998  C 20.969401041666668 13.999999999999998  21.08544921875 13.953124999999998  21.17626953125 13.859374999999998  Z M 26.98876953125 13.859374999999998  C 27.07958984375 13.765624999999998  27.125 13.645833333333332  27.125 13.5  L 27.125 12.499999999999998  C 27.125 12.354166666666666  27.07958984375 12.234375  26.98876953125 12.140625  C 26.89794921875 12.046875  26.781901041666668 12  26.640625 12  L 23.734375 12  C 23.59309895833334 12  23.477050781250004 12.046875  23.38623046875 12.140625  C 23.29541015625 12.234375  23.25 12.354166666666666  23.25 12.499999999999998  L 23.25 13.5  C 23.25 13.645833333333332  23.29541015625 13.765624999999998  23.38623046875 13.859374999999998  C 23.477050781250004 13.953124999999998  23.59309895833334 13.999999999999998  23.734375 13.999999999999998  L 26.640625 13.999999999999998  C 26.781901041666668 13.999999999999998  26.89794921875 13.953124999999998  26.98876953125 13.859374999999998  Z M 26.98876953125 9.859375  C 27.07958984375 9.765625  27.125 9.645833333333332  27.125 9.5  L 27.125 8.5  C 27.125 8.354166666666668  27.07958984375 8.234375  26.98876953125 8.140625  C 26.89794921875 8.046875  26.781901041666668 8  26.640625 8  L 15.984375 8  C 15.843098958333334 8  15.72705078125 8.046875  15.63623046875 8.140625  C 15.54541015625 8.234375  15.5 8.354166666666668  15.5 8.5  L 15.5 9.5  C 15.5 9.645833333333332  15.54541015625 9.765625  15.63623046875 9.859375  C 15.72705078125 9.953125  15.843098958333334 10  15.984375 10  L 26.640625 10  C 26.781901041666668 10  26.89794921875 9.953125  26.98876953125 9.859375  Z M 1.9375 2.499999999999999  L 1.9375 4  L 29.0625 4  L 29.0625 2.499999999999999  C 29.062500000000004 2.3541666666666643  29.017089843750004 2.234375000000001  28.92626953125 2.140625000000001  C 28.835449218750004 2.046875000000001  28.719401041666668 2.000000000000001  28.578125 2  L 2.421875 2  C 2.2805989583333335 2.000000000000001  2.16455078125 2.046875000000001  2.07373046875 2.140625000000001  C 1.98291015625 2.234375000000001  1.9375 2.3541666666666643  1.9375 2.499999999999999  Z M 30.28857421875 0.7343750000000009  C 30.762858072916668 1.2239583333333321  31 1.8125000000000009  31 2.499999999999999  L 31 21.5  C 31 22.1875  30.762858072916668 22.776041666666668  30.28857421875 23.265625  C 29.814290364583336 23.755208333333332  29.244140625 24  28.578125 24  L 2.421875 24  C 1.755859375 24  1.1857096354166667 23.755208333333332  0.71142578125 23.265625  C 0.23714192708333331 22.776041666666668  0 22.1875  0 21.5  L 0 2.499999999999999  C 0 1.8125000000000009  0.23714192708333331 1.2239583333333321  0.71142578125 0.7343750000000009  C 1.1857096354166667 0.2447916666666643  1.755859375 0  2.421875 0  L 28.578125 0  C 29.244140625 0  29.814290364583336 0.2447916666666643  30.28857421875 0.7343750000000009  Z " fill-rule="nonzero" fill="#000000" stroke="none" transform="matrix(1 0 0 1 1400 35 )" />
  </g>
</svg>