<?xml version="1.0" encoding="utf-8"?>
<svg version="1.1" xmlns:xlink="http://www.w3.org/1999/xlink" width="31px" height="24px" xmlns="http://www.w3.org/2000/svg">
  <g transform="matrix(1 0 0 1 -1285 -35 )">
    <path d="M 25.449869791666664 13.703125000000002  C 25.705512152777782 13.505208333333332  25.833333333333336 13.270833333333332  25.833333333333336 13.000000000000002  L 25.833333333333336 11  C 25.833333333333336 10.729166666666664  25.705512152777782 10.494791666666664  25.449869791666664 10.296875  C 25.194227430555557 10.098958333333334  24.891493055555557 10  24.541666666666664 10  L 18.083333333333336 10  L 18.083333333333336 5.000000000000001  C 18.083333333333336 4.729166666666665  17.955512152777782 4.494791666666665  17.699869791666664 4.296875000000001  C 17.444227430555557 4.098958333333331  17.141493055555557 3.999999999999999  16.791666666666664 3.999999999999999  L 14.208333333333332 3.999999999999999  C 13.858506944444446 3.999999999999999  13.555772569444446 4.098958333333331  13.300130208333332 4.296875000000001  C 13.044487847222223 4.494791666666665  12.916666666666668 4.729166666666665  12.916666666666668 5.000000000000001  L 12.916666666666668 10  L 6.458333333333334 10  C 6.1085069444444455 10  5.8057725694444455 10.098958333333334  5.550130208333334 10.296875  C 5.294487847222223 10.494791666666664  5.166666666666666 10.729166666666664  5.166666666666666 11  L 5.166666666666666 13.000000000000002  C 5.166666666666666 13.270833333333332  5.294487847222223 13.505208333333332  5.550130208333334 13.703125000000002  C 5.8057725694444455 13.901041666666666  6.1085069444444455 13.999999999999998  6.458333333333334 13.999999999999998  L 12.916666666666668 13.999999999999998  L 12.916666666666668 19  C 12.916666666666668 19.270833333333332  13.044487847222223 19.505208333333332  13.300130208333332 19.703125  C 13.555772569444446 19.901041666666668  13.858506944444446 20  14.208333333333332 20  L 16.791666666666664 20  C 17.141493055555557 20  17.444227430555557 19.901041666666668  17.699869791666664 19.703125  C 17.955512152777782 19.505208333333332  18.083333333333336 19.270833333333332  18.083333333333336 19  L 18.083333333333336 13.999999999999998  L 24.541666666666664 13.999999999999998  C 24.891493055555557 13.999999999999998  25.194227430555557 13.901041666666666  25.449869791666664 13.703125000000002  Z M 29.294596354166664 1.3203125000000009  C 30.431532118055554 2.2005208333333313  31 3.2604166666666634  31 4.5  L 31 19.5  C 31 20.739583333333332  30.431532118055554 21.799479166666668  29.294596354166664 22.6796875  C 28.157660590277782 23.559895833333332  26.788628472222225 24  25.1875 24  L 5.8125 24  C 4.211371527777778 24  2.8423394097222228 23.559895833333332  1.7054036458333335 22.6796875  C 0.5684678819444443 21.799479166666668  0 20.739583333333332  0 19.5  L 0 4.5  C 0 3.2604166666666634  0.5684678819444443 2.2005208333333313  1.7054036458333335 1.3203125000000009  C 2.8423394097222228 0.4401041666666652  4.211371527777778 0  5.8125 0  L 25.1875 0  C 26.788628472222225 0  28.157660590277782 0.4401041666666652  29.294596354166664 1.3203125000000009  Z " fill-rule="nonzero" fill="#000000" stroke="none" transform="matrix(1 0 0 1 1285 35 )" />
  </g>
</svg>