<?xml version="1.0" encoding="utf-8"?>
<svg version="1.1" xmlns:xlink="http://www.w3.org/1999/xlink" width="25px" height="26px" xmlns="http://www.w3.org/2000/svg">
  <g transform="matrix(1 0 0 1 -500 -84 )">
    <path d="M 15.128580729166666 14.396484375  C 15.589735243055557 13.27365451388889  15.820312500000004 12.125434027777777  15.8203125 10.951822916666668  C 15.820312500000004 9.733072916666668  15.530056423611112 8.779513888888888  14.949544270833334 8.091145833333332  C 14.369032118055555 7.402777777777778  13.568793402777779 7.05859375  12.548828125 7.05859375  C 11.865234375 7.05859375  11.192491319444446 7.2306857638888875  10.530598958333332 7.574869791666668  C 9.868706597222223 7.919053819444442  9.271918402777779 8.395833333333332  8.740234375 9.005208333333332  C 8.208550347222223 9.614583333333332  7.777235243055556 10.387586805555552  7.4462890625 11.32421875  C 7.115342881944445 12.260850694444443  6.949869791666667 13.276475694444445  6.949869791666667 14.37109375  C 6.949869791666667 15.63498263888889  7.240125868055556 16.61111111111111  7.820638020833333 17.299479166666664  C 8.401150173611112 17.98784722222222  9.217664930555557 18.33203125  10.270182291666668 18.33203125  C 11.311848958333332 18.33203125  12.266710069444446 17.95681423611111  13.134765625 17.206380208333336  C 14.002821180555555 16.455946180555554  14.667426215277779 15.51931423611111  15.128580729166666 14.396484375  Z M 21.549479166666664 3.588541666666668  C 23.849826388888886 5.980902777777778  25 9.118055555555552  25 13  C 25 14.252604166666664  24.799262152777775 15.364149305555555  24.397786458333336 16.334635416666664  C 23.996310763888893 17.305121527777775  23.4619140625 18.066840277777775  22.794596354166664 18.619791666666664  C 22.127278645833336 19.172743055555554  21.413845486111114 19.593098958333332  20.654296875 19.880859375  C 19.894748263888893 20.168619791666668  19.108072916666664 20.32378472222222  18.294270833333336 20.346354166666668  C 18.229166666666664 20.346354166666668  18.145073784722225 20.34917534722222  18.0419921875 20.354817708333332  C 17.93891059027778 20.360460069444443  17.849392361111114 20.36328125  17.7734375 20.36328125  C 16.74262152777778 20.36328125  15.972222222222223 20.06423611111111  15.462239583333334 19.466145833333336  C 15.15842013888889 19.09375  14.979383680555555 18.625434027777775  14.925130208333334 18.061197916666664  C 14.360894097222223 18.805989583333336  13.6474609375 19.426649305555554  12.784830729166666 19.923177083333332  C 11.922200520833332 20.41970486111111  10.980902777777779 20.66796875  9.9609375 20.66796875  C 8.213975694444445 20.66796875  6.8603515625 20.12912326388889  5.900065104166666 19.051432291666664  C 4.939778645833334 17.973741319444446  4.459635416666666 16.453125  4.459635416666666 14.489583333333336  C 4.459635416666666 12.717881944444443  4.817708333333334 11.081597222222223  5.533854166666666 9.580729166666668  C 6.25 8.07986111111111  7.221137152777778 6.89214409722222  8.447265625 6.017578125  C 9.673394097222223 5.143012152777778  11.00802951388889 4.705729166666668  12.451171875 4.705729166666668  C 13.395182291666668 4.705729166666668  14.236111111111112 4.90603298611111  14.973958333333334 5.306640625  C 15.711805555555555 5.7072482638888875  16.286892361111114 6.268663194444442  16.69921875 6.990885416666668  L 16.731770833333336 6.669270833333332  L 16.910807291666664 5.721354166666668  C 16.921657986111114 5.653645833333332  16.951497395833336 5.5859375  17.000325520833336 5.518229166666668  C 17.049153645833336 5.450520833333332  17.100694444444446 5.416666666666668  17.154947916666664 5.416666666666668  L 19.075520833333336 5.416666666666668  C 19.129774305555557 5.416666666666668  19.200303819444446 5.4787326388888875  19.287109375 5.602864583333332  C 19.341362847222225 5.659288194444442  19.357638888888893 5.74956597222222  19.3359375 5.873697916666668  L 17.3828125 16.266927083333336  C 17.32855902777778 16.537760416666664  17.301432291666664 16.80859375  17.301432291666664 17.079427083333336  C 17.301432291666664 17.51953125  17.369249131944446 17.812934027777775  17.5048828125 17.959635416666664  C 17.640516493055557 18.106336805555554  17.881944444444446 18.1796875  18.229166666666664 18.1796875  C 18.532986111111114 18.168402777777775  18.84223090277778 18.137369791666664  19.156901041666664 18.086588541666664  C 19.471571180555557 18.035807291666664  19.86762152777778 17.900390625  20.345052083333336 17.680338541666664  C 20.822482638888893 17.460286458333336  21.240234375 17.178168402777775  21.598307291666664 16.833984375  C 21.956380208333336 16.48980034722222  22.265625 15.984809027777775  22.526041666666664 15.319010416666664  C 22.786458333333336 14.653211805555555  22.916666666666664 13.880208333333336  22.916666666666664 13  C 22.916666666666664 9.70486111111111  21.97265625 7.075520833333332  20.084635416666664 5.111979166666668  C 18.196614583333336 3.1484375  15.668402777777779 2.166666666666668  12.5 2.166666666666668  C 11.089409722222223 2.166666666666668  9.7412109375 2.454427083333332  8.455403645833332 3.029947916666668  C 7.169596354166667 3.60546875  6.062825520833334 4.375651041666668  5.135091145833334 5.340494791666668  C 4.207356770833334 6.305338541666668  3.466796875 7.456380208333332  2.913411458333333 8.793619791666668  C 2.360026041666667 10.130859375  2.083333333333333 11.53298611111111  2.083333333333333 13  C 2.083333333333333 14.46701388888889  2.360026041666667 15.869140625  2.913411458333333 17.206380208333336  C 3.466796875 18.543619791666664  4.207356770833334 19.694661458333332  5.135091145833334 20.659505208333332  C 6.062825520833334 21.624348958333332  7.169596354166667 22.39453125  8.455403645833332 22.970052083333332  C 9.7412109375 23.545572916666668  11.089409722222223 23.833333333333332  12.5 23.833333333333332  C 14.973958333333334 23.833333333333332  17.171223958333336 23.020833333333332  19.091796875 21.395833333333332  C 19.211154513888893 21.294270833333332  19.341362847222225 21.249131944444443  19.482421875 21.260416666666668  C 19.62348090277778 21.27170138888889  19.737413194444446 21.33940972222222  19.82421875 21.463541666666668  L 20.491536458333336 22.29296875  C 20.578342013888893 22.428385416666668  20.616319444444446 22.563802083333332  20.60546875 22.69921875  C 20.583767361111114 22.84592013888889  20.518663194444446 22.970052083333332  20.41015625 23.071614583333332  C 19.303385416666664 24.00824652777778  18.069118923611114 24.73046875  16.707356770833336 25.23828125  C 15.345594618055555 25.74609375  13.943142361111112 26  12.5 26  C 10.807291666666668 26  9.190538194444446 25.65581597222222  7.649739583333333 24.967447916666668  C 6.108940972222223 24.27907986111111  4.779730902777779 23.35373263888889  3.662109375 22.19140625  C 2.5444878472222223 21.02907986111111  1.654730902777778 19.64670138888889  0.9928385416666667 18.044270833333336  C 0.33094618055555564 16.441840277777775  0 14.760416666666664  0 13  C 0 11.239583333333332  0.33094618055555564 9.558159722222223  0.9928385416666667 7.955729166666668  C 1.654730902777778 6.35329861111111  2.5444878472222223 4.9709201388888875  3.662109375 3.80859375  C 4.779730902777779 2.64626736111111  6.108940972222223 1.7209201388888873  7.649739583333333 1.0325520833333324  C 9.190538194444446 0.34418402777777746  10.807291666666668 0  12.5 0  C 16.23263888888889 0  19.249131944444446 1.196180555555552  21.549479166666664 3.588541666666668  Z " fill-rule="nonzero" fill="#000000" stroke="none" transform="matrix(1 0 0 1 500 84 )" />
  </g>
</svg>