<?xml version="1.0" encoding="utf-8"?>
<svg version="1.1" xmlns:xlink="http://www.w3.org/1999/xlink" width="456px" height="339px" xmlns="http://www.w3.org/2000/svg">
  <g transform="matrix(1 0 0 1 -1182 -1607 )">
    <path d="M 1182 1607  L 1638 1607  L 1638 1946  L 1182 1946  L 1182 1607  " fill-rule="nonzero" fill="#cccccc" stroke="none" />
    <path d="M 1206 1631  L 1614 1631  L 1614 1922  L 1206 1922  L 1206 1631  " fill-rule="nonzero" fill="#ffffff" stroke="none" />
    <path d="M 1444.5449999999998 1708.6999999999998  C 1430.3069999999998 1708.6999999999998  1419.12 1697.513  1419.12 1683.2749999999999  C 1419.12 1669.0369999999998  1430.3069999999998 1657.85  1444.5449999999998 1657.85  C 1458.783 1657.85  1469.9699999999998 1669.0369999999998  1469.9699999999998 1683.2749999999999  C 1469.9699999999998 1697.513  1458.783 1708.6999999999998  1444.5449999999998 1708.6999999999998  " fill-rule="nonzero" fill="#cccccc" stroke="none" />
    <path d="M 1215 1914  L 1215 1763.3  L 1312.75 1694.8  L 1449.6 1791.7815789473684  L 1527.8 1735.9  L 1606 1791.7815789473684  L 1606 1914  L 1215 1914  " fill-rule="nonzero" fill="#169bd5" stroke="none" />
  </g>
</svg>