<?xml version="1.0" encoding="utf-8"?>
<svg version="1.1" xmlns:xlink="http://www.w3.org/1999/xlink" width="700px" height="834px" xmlns="http://www.w3.org/2000/svg">
  <g transform="matrix(1 0 0 1 -183 -734 )">
    <path d="M 183 734  L 883 734  L 883 1568  L 183 1568  L 183 734  " fill-rule="nonzero" fill="#cccccc" stroke="none" />
    <path d="M 232 783  L 834 783  L 834 1519  L 232 1519  L 232 783  " fill-rule="nonzero" fill="#ffffff" stroke="none" />
    <path d="M 599.5 964.1  C 570.1 964.1  547 941  547 911.6  C 547 882.2  570.1 859.1  599.5 859.1  C 628.9 859.1  652 882.2  652 911.6  C 652 941  628.9 964.1  599.5 964.1  " fill-rule="nonzero" fill="#cccccc" stroke="none" />
    <path d="M 250 1502  L 250 1116.45  L 391.75 941.1999999999999  L 590.2 1081.4  L 703.6 1046.35  L 817 1081.4  L 817 1502  L 250 1502  " fill-rule="nonzero" fill="#169bd5" stroke="none" />
  </g>
</svg>