<?xml version="1.0" encoding="utf-8"?>
<svg version="1.1" xmlns:xlink="http://www.w3.org/1999/xlink" width="427px" height="242px" xmlns="http://www.w3.org/2000/svg">
  <g transform="matrix(1 0 0 1 -186 -1006 )">
    <path d="M 186 1006  L 613 1006  L 613 1248  L 186 1248  L 186 1006  " fill-rule="nonzero" fill="#cccccc" stroke="none" />
    <path d="M 203 1023  L 596 1023  L 596 1231  L 203 1231  L 203 1023  " fill-rule="nonzero" fill="#ffffff" stroke="none" />
    <path d="M 426.19000000000005 1078.6  C 416.026 1078.6  408.04 1070.6139999999998  408.04 1060.4499999999998  C 408.04 1050.2859999999998  416.026 1042.3  426.19000000000005 1042.3  C 436.35400000000004 1042.3  444.34000000000003 1050.2859999999998  444.34000000000003 1060.4499999999998  C 444.34000000000003 1070.6139999999998  436.35400000000004 1078.6  426.19000000000005 1078.6  " fill-rule="nonzero" fill="#cccccc" stroke="none" />
    <path d="M 209 1225  L 209 1117.2  L 304.25 1068.2  L 437.6 1158.3508196721311  L 513.8 1097.6  L 590 1158.3508196721311  L 590 1225  L 209 1225  " fill-rule="nonzero" fill="#169bd5" stroke="none" />
  </g>
</svg>