<?xml version="1.0" encoding="utf-8"?>
<svg version="1.1" xmlns:xlink="http://www.w3.org/1999/xlink" width="50px" height="33px" xmlns="http://www.w3.org/2000/svg">
  <g transform="matrix(1 0 0 1 -942 -815 )">
    <path d="M 15.766059027777779 15.737304687500002  C 16.03370949074074 15.973632812499998  16.16753472222222 16.299479166666664  16.16753472222222 16.714843750000004  C 16.16753472222222 17.244791666666664  15.983072916666666 17.685221354166668  15.614149305555555 18.036132812500004  C 15.245225694444445 18.38704427083333  14.793113425925927 18.5625  14.2578125 18.5625  C 13.838252314814817 18.5625  13.501880787037038 18.447916666666664  13.248697916666666 18.218749999999996  C 12.995515046296296 17.989583333333332  12.86892361111111 17.674479166666664  12.86892361111111 17.2734375  C 12.86892361111111 16.74348958333333  13.04976851851852 16.2958984375  13.411458333333334 15.930664062500002  C 13.77314814814815 15.5654296875  14.22164351851852 15.382812500000002  14.756944444444445 15.382812500000002  C 15.162037037037038 15.382812500000002  15.498408564814817 15.5009765625  15.766059027777779 15.737304687500002  Z M 32.94270833333333 12.8583984375  C 33.11631944444444 13.008789062499998  33.203125 13.227213541666668  33.203125 13.513671875000002  C 33.203125 14.115234375  33.04398148148148 14.523437499999998  32.72569444444444 14.738281250000002  C 32.40740740740741 14.953125  31.929976851851855 15.060546875000002  31.29340277777778 15.060546875000002  L 30.598958333333332 15.08203125  L 30.967881944444443 12.783203124999998  C 30.996817129629633 12.625651041666664  31.09085648148148 12.546875000000002  31.25 12.546875000000002  L 31.640625 12.546875000000002  C 31.95891203703704 12.546875000000002  32.21209490740741 12.561197916666664  32.40017361111111 12.589843749999998  C 32.58825231481482 12.618489583333332  32.76909722222222 12.708007812500002  32.94270833333333 12.8583984375  Z M 40.41883680555556 15.737304687500002  C 40.686487268518526 15.973632812499998  40.82031250000001 16.299479166666664  40.8203125 16.714843750000004  C 40.82031250000001 17.230468750000004  40.63585069444445 17.667317708333332  40.26692708333333 18.025390624999996  C 39.89800347222223 18.383463541666664  39.45312500000001 18.5625  38.93229166666667 18.5625  C 38.51273148148148 18.5625  38.17274305555556 18.447916666666664  37.91232638888889 18.218749999999996  C 37.65190972222222 17.989583333333332  37.52170138888889 17.674479166666664  37.52170138888889 17.2734375  C 37.52170138888889 16.74348958333333  37.702546296296305 16.2958984375  38.06423611111111 15.930664062500002  C 38.42592592592593 15.5654296875  38.874421296296305 15.382812500000002  39.40972222222222 15.382812500000002  C 39.81481481481482 15.382812500000002  40.151186342592595 15.5009765625  40.41883680555556 15.737304687500002  Z M 10.069444444444445 15.930664062500002  C 10.778356481481483 15.236002604166664  11.1328125 14.27278645833333  11.1328125 13.041015624999998  C 11.1328125 12.195963541666668  10.854311342592595 11.583658854166668  10.297309027777777 11.204101562499998  C 9.740306712962964 10.82454427083333  9.013310185185187 10.634765625  8.116319444444445 10.634765625  L 4.644097222222222 10.634765625  C 4.369212962962964 10.634765625  4.217303240740741 10.770833333333332  4.188368055555555 11.042968749999998  L 2.7777777777777777 19.808593750000004  C 2.763310185185185 19.894531249999996  2.785011574074074 19.973307291666668  2.842881944444444 20.044921875  C 2.9007523148148153 20.116536458333332  2.9730902777777777 20.152343749999996  3.059895833333333 20.152343749999996  L 4.709201388888888 20.152343749999996  C 4.998553240740741 20.152343749999996  5.1576967592592595 20.016276041666664  5.186631944444445 19.744140625000004  L 5.577256944444445 17.380859374999996  C 5.591724537037038 17.266276041666668  5.642361111111112 17.173177083333336  5.729166666666666 17.101562500000004  C 5.815972222222222 17.029947916666664  5.924479166666666 16.9833984375  6.0546875 16.961914062499996  C 6.184895833333334 16.940429687500004  6.30787037037037 16.929687499999996  6.423611111111111 16.929687499999996  C 6.539351851851853 16.929687499999996  6.676793981481483 16.93684895833333  6.8359375 16.951171875  C 6.995081018518519 16.965494791666664  7.096354166666667 16.972656250000004  7.139756944444445 16.972656250000004  C 8.383969907407408 16.972656250000004  9.360532407407408 16.625325520833336  10.069444444444445 15.930664062500002  Z M 17.36111111111111 20.152343749999996  C 17.635995370370374 20.152343749999996  17.795138888888893 20.016276041666664  17.838541666666664 19.744140625000004  L 18.72829861111111 14.136718749999998  C 18.742766203703706 14.05078125  18.721064814814817 13.972005208333332  18.663194444444446 13.900390625000002  C 18.605324074074076 13.828776041666666  18.53298611111111 13.79296875  18.446180555555554 13.79296875  L 16.796875 13.79296875  C 16.594328703703706 13.79296875  16.471354166666664 14.029296875000002  16.42795138888889 14.501953125  C 16.03732638888889 13.929036458333332  15.35011574074074 13.642578125000002  14.366319444444445 13.642578125000002  C 13.324652777777779 13.642578125000002  12.438512731481483 14.029296875000002  11.707899305555555 14.802734375000002  C 10.977285879629632 15.576171875000002  10.611979166666668 16.485677083333332  10.611979166666668 17.53125  C 10.611979166666668 18.376302083333332  10.86154513888889 19.049479166666664  11.360677083333332 19.550781250000004  C 11.859809027777777 20.052083333333332  12.528935185185187 20.302734375  13.368055555555555 20.302734375  C 13.77314814814815 20.302734375  14.192708333333334 20.216796874999996  14.62673611111111 20.044921875  C 15.06076388888889 19.873046875000004  15.40798611111111 19.64388020833333  15.668402777777779 19.357421875000004  C 15.610532407407407 19.529296875  15.581597222222221 19.679687500000004  15.581597222222221 19.808593750000004  C 15.581597222222221 20.03776041666666  15.675636574074076 20.152343749999996  15.863715277777779 20.152343749999996  L 17.36111111111111 20.152343749999996  Z M 27.49565972222222 14.244140625  C 27.524594907407412 14.215494791666666  27.5390625 14.165364583333332  27.5390625 14.093750000000002  C 27.5390625 14.022135416666666  27.510127314814813 13.9541015625  27.452256944444443 13.8896484375  C 27.394386574074076 13.8251953125  27.329282407407412 13.79296875  27.256944444444443 13.79296875  L 25.5859375 13.79296875  C 25.42679398148148 13.79296875  25.296585648148152 13.864583333333332  25.1953125 14.007812499999998  L 22.89496527777778 17.359375000000004  L 21.940104166666664 14.136718749999998  C 21.867766203703706 13.907552083333332  21.708622685185187 13.79296875  21.46267361111111 13.79296875  L 19.835069444444446 13.79296875  C 19.76273148148148 13.79296875  19.697627314814817 13.8251953125  19.639756944444446 13.8896484375  C 19.581886574074076 13.9541015625  19.55295138888889 14.022135416666666  19.55295138888889 14.093750000000002  C 19.55295138888889 14.122395833333332  19.694010416666664 14.544921875000002  19.97612847222222 15.361328124999998  C 20.25824652777778 16.177734375  20.56206597222222 17.058593749999996  20.887586805555554 18.003906250000004  C 21.21310763888889 18.94921875  21.38310185185185 19.45052083333333  21.397569444444446 19.507812499999996  C 20.21122685185185 21.111979166666664  19.618055555555554 21.97135416666666  19.618055555555554 22.085937499999996  C 19.618055555555554 22.272135416666664  19.71209490740741 22.365234375  19.90017361111111 22.365234375  L 21.571180555555554 22.365234375  C 21.73032407407408 22.365234375  21.86053240740741 22.29361979166666  21.961805555555554 22.150390624999996  L 27.49565972222222 14.244140625  Z M 34.72222222222222 15.930664062500002  C 35.43113425925926 15.236002604166664  35.78559027777778 14.27278645833333  35.78559027777778 13.041015624999998  C 35.78559027777778 12.195963541666668  35.507089120370374 11.583658854166668  34.95008680555556 11.204101562499998  C 34.39308449074075 10.82454427083333  33.66608796296296 10.634765625  32.76909722222222 10.634765625  L 29.31857638888889 10.634765625  C 29.02922453703704 10.634765625  28.870081018518523 10.770833333333332  28.841145833333332 11.042968749999998  L 27.430555555555557 19.808593750000004  C 27.416087962962965 19.894531249999996  27.437789351851855 19.973307291666668  27.49565972222222 20.044921875  C 27.55353009259259 20.116536458333332  27.625868055555557 20.152343749999996  27.71267361111111 20.152343749999996  L 29.4921875 20.152343749999996  C 29.66579861111111 20.152343749999996  29.781539351851855 20.059244791666664  29.83940972222222 19.873046875000004  L 30.23003472222222 17.380859374999996  C 30.244502314814813 17.266276041666668  30.29513888888889 17.173177083333336  30.381944444444443 17.101562500000004  C 30.46875 17.029947916666664  30.577256944444443 16.9833984375  30.70746527777778 16.961914062499996  C 30.83767361111111 16.940429687500004  30.960648148148152 16.929687499999996  31.07638888888889 16.929687499999996  C 31.192129629629633 16.929687499999996  31.329571759259263 16.93684895833333  31.48871527777778 16.951171875  C 31.6478587962963 16.965494791666664  31.749131944444443 16.972656250000004  31.79253472222222 16.972656250000004  C 33.03674768518518 16.972656250000004  34.01331018518518 16.625325520833336  34.72222222222222 15.930664062500002  Z M 42.01388888888889 20.152343749999996  C 42.28877314814815 20.152343749999996  42.44791666666667 20.016276041666664  42.49131944444444 19.744140625000004  L 43.38107638888889 14.136718749999998  C 43.39554398148148 14.05078125  43.373842592592595 13.972005208333332  43.31597222222222 13.900390625000002  C 43.258101851851855 13.828776041666666  43.18576388888889 13.79296875  43.09895833333333 13.79296875  L 41.44965277777778 13.79296875  C 41.24710648148149 13.79296875  41.12413194444445 14.029296875000002  41.08072916666667 14.501953125  C 40.70457175925926 13.929036458333332  40.01736111111111 13.642578125000002  39.01909722222222 13.642578125000002  C 37.97743055555556 13.642578125000002  37.09129050925926 14.029296875000002  36.36067708333333 14.802734375000002  C 35.63006365740741 15.576171875000002  35.26475694444444 16.485677083333332  35.26475694444444 17.53125  C 35.26475694444444 18.376302083333332  35.51432291666667 19.049479166666664  36.01345486111111 19.550781250000004  C 36.51258680555556 20.052083333333332  37.18171296296296 20.302734375  38.02083333333333 20.302734375  C 38.440393518518526 20.302734375  38.8671875 20.216796874999996  39.30121527777778 20.044921875  C 39.73524305555556 19.873046875000004  40.07523148148148 19.64388020833333  40.32118055555556 19.357421875000004  C 40.32118055555556 19.371744791666664  40.30671296296296 19.436197916666664  40.27777777777778 19.550781250000004  C 40.248842592592595 19.665364583333332  40.23437500000001 19.751302083333336  40.234375 19.808593750000004  C 40.23437500000001 20.03776041666666  40.328414351851855 20.152343749999996  40.51649305555556 20.152343749999996  L 42.01388888888889 20.152343749999996  Z M 45.81163194444444 19.744140625000004  L 47.22222222222222 10.95703125  L 47.22222222222222 10.935546875000002  C 47.22222222222222 10.735026041666663  47.12818287037038 10.634765625  46.94010416666667 10.634765625  L 45.33420138888889 10.634765625  C 45.17505787037038 10.634765625  45.081018518518526 10.713541666666664  45.05208333333333 10.871093750000002  L 43.64149305555556 19.808593750000004  L 43.61979166666667 19.8515625  C 43.61979166666667 19.923177083333332  43.648726851851855 19.991210937499996  43.70659722222222 20.055664062499996  C 43.764467592592595 20.120117187499996  43.83680555555556 20.152343749999996  43.92361111111111 20.152343749999996  L 45.35590277777778 20.152343749999996  C 45.630787037037045 20.152343749999996  45.78269675925927 20.016276041666664  45.81163194444444 19.744140625000004  Z M 8.246527777777777 12.7939453125  C 8.506944444444445 12.958658854166663  8.59375 13.30598958333333  8.506944444444445 13.835937500000002  C 8.434606481481483 14.33723958333333  8.246527777777779 14.666666666666666  7.942708333333333 14.82421875  C 7.638888888888889 14.98177083333333  7.204861111111111 15.060546875000002  6.640625 15.060546875000002  L 5.924479166666666 15.08203125  L 6.293402777777778 12.783203124999998  C 6.322337962962964 12.625651041666664  6.416377314814816 12.546875000000002  6.575520833333333 12.546875000000002  L 6.987847222222222 12.546875000000002  C 7.566550925925926 12.546875000000002  7.986111111111111 12.62923177083333  8.246527777777777 12.7939453125  Z M 49.17534722222222 0.8164062500000012  C 49.72511574074075 1.3606770833333317  50 2.0052083333333317  50 2.7500000000000013  L 50 30.25  C 50 30.994791666666668  49.72511574074075 31.639322916666668  49.17534722222222 32.18359375  C 48.62557870370371 32.727864583333336  47.974537037037045 33  47.22222222222222 33  L 2.7777777777777777 33  C 2.0254629629629632 33  1.3744212962962963 32.727864583333336  0.8246527777777778 32.18359375  C 0.27488425925925924 31.639322916666668  0 30.994791666666668  0 30.25  L 0 2.7500000000000013  C 0 2.0052083333333317  0.27488425925925924 1.3606770833333317  0.8246527777777778 0.8164062500000012  C 1.3744212962962963 0.2721354166666634  2.0254629629629632 0  2.7777777777777777 0  L 47.22222222222222 0  C 47.974537037037045 0  48.62557870370371 0.2721354166666634  49.17534722222222 0.8164062500000012  Z " fill-rule="nonzero" fill="#000000" stroke="none" transform="matrix(1 0 0 1 942 815 )" />
  </g>
</svg>