<?xml version="1.0" encoding="utf-8"?>
<svg version="1.1" xmlns:xlink="http://www.w3.org/1999/xlink" width="849px" height="481px" xmlns="http://www.w3.org/2000/svg">
  <g transform="matrix(1 0 0 1 -192 -240 )">
    <path d="M 192 240  L 1041 240  L 1041 721  L 192 721  L 192 240  " fill-rule="nonzero" fill="#cccccc" stroke="none" />
    <path d="M 226 274  L 1007 274  L 1007 687  L 226 687  L 226 274  " fill-rule="nonzero" fill="#ffffff" stroke="none" />
    <path d="M 669.5550000000001 384.29999999999995  C 649.3530000000001 384.29999999999995  633.48 368.42699999999996  633.48 348.22499999999997  C 633.48 328.02299999999997  649.3530000000001 312.15  669.5550000000001 312.15  C 689.7570000000001 312.15  705.63 328.02299999999997  705.63 348.22499999999997  C 705.63 368.42699999999996  689.7570000000001 384.29999999999995  669.5550000000001 384.29999999999995  " fill-rule="nonzero" fill="#cccccc" stroke="none" />
    <path d="M 238 675  L 238 461.04999999999995  L 427.25 363.79999999999995  L 692.2 542.7674911660778  L 843.6 422.15  L 995 542.7674911660778  L 995 675  L 238 675  " fill-rule="nonzero" fill="#169bd5" stroke="none" />
  </g>
</svg>