<?xml version="1.0" encoding="utf-8"?>
<svg version="1.1" xmlns:xlink="http://www.w3.org/1999/xlink" width="25px" height="21px" xmlns="http://www.w3.org/2000/svg">
  <g transform="matrix(1 0 0 1 -1440 -1452 )">
    <path d="M 17.822265625 2.700195312499999  C 16.171409970238095 2.066731770833332  14.397321428571427 1.7500000000000009  12.5 1.7500000000000009  C 10.602678571428571 1.7500000000000009  8.828590029761905 2.066731770833332  7.177734375 2.700195312499999  C 5.526878720238095 3.3336588541666665  4.215494791666667 4.188151041666666  3.2435825892857144 5.263671874999999  C 2.271670386904762 6.33919270833333  1.7857142857142856 7.501302083333332  1.7857142857142856 8.75  C 1.7857142857142856 9.770833333333334  2.1182105654761907 10.743815104166668  2.783203125 11.6689453125  C 3.4481956845238098 12.594075520833332  4.385230654761905 13.393880208333332  5.594308035714286 14.068359375  L 6.8080357142857135 14.751953124999998  L 6.431361607142858 16.064453125  C 6.208147321428571 16.893880208333336  5.882626488095238 17.677734375  5.454799107142857 18.416015625  C 6.868489583333334 17.841796875  8.147321428571429 17.0625  9.291294642857142 16.078125  L 9.891183035714286 15.558593750000002  L 10.686383928571429 15.640625000000002  C 11.328125 15.713541666666666  11.93266369047619 15.75  12.5 15.75  C 14.397321428571427 15.75  16.171409970238095 15.433268229166664  17.822265625 14.799804687500002  C 19.473121279761905 14.16634114583333  20.784505208333336 13.311848958333332  21.756417410714285 12.236328125000002  C 22.728329613095237 11.160807291666666  23.214285714285715 9.998697916666666  23.214285714285715 8.75  C 23.214285714285715 7.501302083333332  22.728329613095237 6.33919270833333  21.756417410714285 5.263671874999999  C 20.784505208333336 4.188151041666666  19.473121279761905 3.3336588541666665  17.822265625 2.700195312499999  Z M 23.325892857142858 4.354492187500001  C 24.441964285714285 5.698893229166665  25 7.164062500000001  25 8.75  C 25 10.3359375  24.441964285714285 11.801106770833332  23.325892857142858 13.1455078125  C 22.209821428571427 14.489908854166664  20.693824404761905 15.551757812499998  18.777901785714285 16.3310546875  C 16.861979166666668 17.1103515625  14.769345238095239 17.5  12.5 17.5  C 11.848958333333334 17.5  11.174665178571429 17.463541666666668  10.477120535714286 17.390625  C 8.635602678571429 18.985677083333336  6.496465773809525 20.088541666666668  4.059709821428571 20.69921875  C 3.6039806547619055 20.826822916666668  3.0738467261904763 20.927083333333332  2.4693080357142856 21  L 2.3995535714285716 21  C 2.260044642857143 21  2.134486607142857 20.9521484375  2.0228794642857144 20.8564453125  C 1.9112723214285716 20.7607421875  1.83686755952381 20.635416666666664  1.7996651785714284 20.48046875  L 1.7996651785714284 20.466796875  C 1.7717633928571432 20.430338541666668  1.769438244047619 20.375651041666668  1.7926897321428572 20.302734375  C 1.8159412202380956 20.229817708333332  1.8252418154761907 20.184244791666664  1.8205915178571428 20.166015625  C 1.8159412202380956 20.147786458333332  1.83686755952381 20.1044921875  1.8833705357142856 20.0361328125  L 1.9670758928571428 19.9130859375  C 1.9670758928571428 19.9130859375  1.9996279761904763 19.874348958333336  2.064732142857143 19.796875  C 2.1298363095238098 19.719401041666668  2.1670386904761907 19.678385416666668  2.1763392857142856 19.673828125  C 2.2414434523809526 19.600911458333336  2.3856026785714284 19.443684895833336  2.6088169642857144 19.2021484375  C 2.83203125 18.960611979166668  2.992466517857143 18.787434895833336  3.090122767857143 18.6826171875  C 3.1877790178571432 18.577799479166664  3.331938244047619 18.397786458333336  3.522600446428571 18.142578125  C 3.713262648809524 17.887369791666664  3.864397321428571 17.654947916666664  3.9760044642857144 17.4453125  C 4.087611607142857 17.235677083333332  4.213169642857143 16.966796875  4.352678571428571 16.638671875  C 4.4921875 16.310546875  4.613095238095238 15.964192708333334  4.715401785714286 15.599609375000002  C 3.2552083333333335 14.788411458333332  2.1042596726190474 13.785807291666666  1.2625558035714286 12.591796875  C 0.4208519345238095 11.39778645833333  0 10.1171875  0 8.75  C 0 7.164062500000001  0.5580357142857143 5.698893229166665  1.6741071428571428 4.354492187500001  C 2.790178571428572 3.010091145833332  4.306175595238095 1.9482421875  6.222098214285714 1.1689453125  C 8.138020833333334 0.3896484375  10.230654761904763 0  12.5 0  C 14.769345238095239 0  16.861979166666668 0.3896484375  18.777901785714285 1.1689453125  C 20.693824404761905 1.9482421875  22.209821428571427 3.010091145833332  23.325892857142858 4.354492187500001  Z " fill-rule="nonzero" fill="#000000" stroke="none" transform="matrix(1 0 0 1 1440 1452 )" />
  </g>
</svg>