<?xml version="1.0" encoding="utf-8"?>
<svg version="1.1" xmlns:xlink="http://www.w3.org/1999/xlink" width="13px" height="13px" viewBox="901 553  13 13" xmlns="http://www.w3.org/2000/svg">
  <path d="M 907.5 553  C 911.14 553  914 555.86  914 559.5  C 914 563.14  911.14 566  907.5 566  C 903.86 566  901 563.14  901 559.5  C 901 555.86  903.86 553  907.5 553  Z " fill-rule="nonzero" fill="#f0f0f0" stroke="none" />
  <path d="M 907.5 553.5  C 910.86 553.5  913.5 556.14  913.5 559.5  C 913.5 562.86  910.86 565.5  907.5 565.5  C 904.14 565.5  901.5 562.86  901.5 559.5  C 901.5 556.14  904.14 553.5  907.5 553.5  Z " stroke-width="1" stroke="#797979" fill="none" />
  <path d="M 907.5 562.75  C 905.68 562.75  904.25 561.32  904.25 559.5  C 904.25 557.68  905.68 556.25  907.5 556.25  C 909.32 556.25  910.75 557.68  910.75 559.5  C 910.75 561.32  909.32 562.75  907.5 562.75  " fill-rule="nonzero" fill="#797979" stroke="none" />
</svg>