<?xml version="1.0" encoding="utf-8"?>
<svg version="1.1" xmlns:xlink="http://www.w3.org/1999/xlink" width="13px" height="13px" viewBox="1031 553  13 13" xmlns="http://www.w3.org/2000/svg">
  <path d="M 1037.5 553  C 1041.14 553  1044 555.86  1044 559.5  C 1044 563.14  1041.14 566  1037.5 566  C 1033.86 566  1031 563.14  1031 559.5  C 1031 555.86  1033.86 553  1037.5 553  Z " fill-rule="nonzero" fill="#f0f0f0" stroke="none" />
  <path d="M 1037.5 553.5  C 1040.86 553.5  1043.5 556.14  1043.5 559.5  C 1043.5 562.86  1040.86 565.5  1037.5 565.5  C 1034.14 565.5  1031.5 562.86  1031.5 559.5  C 1031.5 556.14  1034.14 553.5  1037.5 553.5  Z " stroke-width="1" stroke="#797979" fill="none" />
  <path d="M 1037.5 562.75  C 1035.68 562.75  1034.25 561.32  1034.25 559.5  C 1034.25 557.68  1035.68 556.25  1037.5 556.25  C 1039.32 556.25  1040.75 557.68  1040.75 559.5  C 1040.75 561.32  1039.32 562.75  1037.5 562.75  " fill-rule="nonzero" fill="#797979" stroke="none" />
</svg>